<svg width="24" height="24" viewBox="0 0 24 24" fill="none" xmlns="http://www.w3.org/2000/svg">
<g clip-path="url(#clip0_102_15)">
<mask id="mask0_102_15" style="mask-type:luminance" maskUnits="userSpaceOnUse" x="0" y="0" width="24" height="24">
<path d="M12.0015 2L14.6365 4.635H19.365V9.363L22 11.998L19.365 14.637V19.365H14.637L12.002 22L9.363 19.365H4.635V14.637L2 11.9985L4.635 9.3635V4.635H9.363L12.0015 2Z" fill="white" stroke="white" stroke-width="4" stroke-miterlimit="10" stroke-linecap="round" stroke-linejoin="round"/>
<path d="M13.5 8.5C13.5 12.5 11 13 8.5 13C8.5 15 11.75 17 14.5 15C17.25 13 15.5 8.5 13.5 8.5Z" fill="black" stroke="black" stroke-width="4" stroke-miterlimit="10" stroke-linecap="round" stroke-linejoin="round"/>
</mask>
<g mask="url(#mask0_102_15)">
<path d="M0 0H24V24H0V0Z" fill="#371622"/>
</g>
</g>
<defs>
<clipPath id="clip0_102_15">
<rect width="24" height="24" fill="white"/>
</clipPath>
</defs>
</svg>
