<svg width="24" height="25" viewBox="0 0 24 25" fill="none" xmlns="http://www.w3.org/2000/svg">
<path fill-rule="evenodd" clip-rule="evenodd" d="M2.40001 5.29999C2.18783 5.29999 1.98435 5.38427 1.83432 5.5343C1.68429 5.68433 1.60001 5.88781 1.60001 6.09999C1.60001 6.31216 1.68429 6.51564 1.83432 6.66567C1.98435 6.8157 2.18783 6.89999 2.40001 6.89999H21.6C21.8122 6.89999 22.0157 6.8157 22.1657 6.66567C22.3157 6.51564 22.4 6.31216 22.4 6.09999C22.4 5.88781 22.3157 5.68433 22.1657 5.5343C22.0157 5.38427 21.8122 5.29999 21.6 5.29999H2.40001ZM1.60001 12.5C1.60001 12.2878 1.68429 12.0843 1.83432 11.9343C1.98435 11.7843 2.18783 11.7 2.40001 11.7H21.6C21.8122 11.7 22.0157 11.7843 22.1657 11.9343C22.3157 12.0843 22.4 12.2878 22.4 12.5C22.4 12.7122 22.3157 12.9156 22.1657 13.0657C22.0157 13.2157 21.8122 13.3 21.6 13.3H2.40001C2.18783 13.3 1.98435 13.2157 1.83432 13.0657C1.68429 12.9156 1.60001 12.7122 1.60001 12.5ZM1.60001 18.9C1.60001 18.6878 1.68429 18.4843 1.83432 18.3343C1.98435 18.1843 2.18783 18.1 2.40001 18.1H21.6C21.8122 18.1 22.0157 18.1843 22.1657 18.3343C22.3157 18.4843 22.4 18.6878 22.4 18.9C22.4 19.1122 22.3157 19.3156 22.1657 19.4657C22.0157 19.6157 21.8122 19.7 21.6 19.7H2.40001C2.18783 19.7 1.98435 19.6157 1.83432 19.4657C1.68429 19.3156 1.60001 19.1122 1.60001 18.9Z" fill="#371622"/>
</svg>
