<svg width="24" height="25" viewBox="0 0 24 25" fill="none" xmlns="http://www.w3.org/2000/svg">
<path fill-rule="evenodd" clip-rule="evenodd" d="M2.39998 5.29999C2.1878 5.29999 1.98432 5.38427 1.83429 5.5343C1.68426 5.68433 1.59998 5.88781 1.59998 6.09999C1.59998 6.31216 1.68426 6.51564 1.83429 6.66567C1.98432 6.8157 2.1878 6.89999 2.39998 6.89999H21.6C21.8121 6.89999 22.0156 6.8157 22.1657 6.66567C22.3157 6.51564 22.4 6.31216 22.4 6.09999C22.4 5.88781 22.3157 5.68433 22.1657 5.5343C22.0156 5.38427 21.8121 5.29999 21.6 5.29999H2.39998ZM1.59998 12.5C1.59998 12.2878 1.68426 12.0843 1.83429 11.9343C1.98432 11.7843 2.1878 11.7 2.39998 11.7H21.6C21.8121 11.7 22.0156 11.7843 22.1657 11.9343C22.3157 12.0843 22.4 12.2878 22.4 12.5C22.4 12.7122 22.3157 12.9156 22.1657 13.0657C22.0156 13.2157 21.8121 13.3 21.6 13.3H2.39998C2.1878 13.3 1.98432 13.2157 1.83429 13.0657C1.68426 12.9156 1.59998 12.7122 1.59998 12.5ZM1.59998 18.9C1.59998 18.6878 1.68426 18.4843 1.83429 18.3343C1.98432 18.1843 2.1878 18.1 2.39998 18.1H21.6C21.8121 18.1 22.0156 18.1843 22.1657 18.3343C22.3157 18.4843 22.4 18.6878 22.4 18.9C22.4 19.1122 22.3157 19.3156 22.1657 19.4657C22.0156 19.6157 21.8121 19.7 21.6 19.7H2.39998C2.1878 19.7 1.98432 19.6157 1.83429 19.4657C1.68426 19.3156 1.59998 19.1122 1.59998 18.9Z" fill="#EBE1E1"/>
</svg>
