<svg width="33" height="32" viewBox="0 0 33 32" fill="none" xmlns="http://www.w3.org/2000/svg">
<path fill-rule="evenodd" clip-rule="evenodd" d="M13.072 11.9587H18.024V14.4253C18.7373 13.0067 20.5667 11.732 23.3147 11.732C28.5827 11.732 29.8333 14.556 29.8333 19.7373V29.3333H24.5V20.9173C24.5 17.9667 23.7867 16.3027 21.9707 16.3027C19.452 16.3027 18.4053 18.096 18.4053 20.916V29.3333H13.072V11.9587ZM3.92666 29.1067H9.25999V11.732H3.92666V29.1067ZM10.024 6.06667C10.0242 6.51371 9.93553 6.95632 9.76317 7.36879C9.59081 7.78126 9.33819 8.15536 9.01999 8.46934C8.37519 9.11017 7.5024 9.46888 6.59332 9.46667C5.68584 9.46606 4.81507 9.10827 4.16932 8.47067C3.85227 8.15562 3.6005 7.7811 3.42845 7.36858C3.25639 6.95606 3.16743 6.51364 3.16666 6.06667C3.16666 5.16401 3.52666 4.30001 4.17066 3.66267C4.81584 3.02422 5.68698 2.66627 6.59466 2.66667C7.50399 2.66667 8.37599 3.02534 9.01999 3.66267C9.66266 4.30001 10.024 5.16401 10.024 6.06667Z" fill="#371622"/>
</svg>
