<svg width="33" height="32" viewBox="0 0 33 32" fill="none" xmlns="http://www.w3.org/2000/svg">
<path fill-rule="evenodd" clip-rule="evenodd" d="M13.072 11.9587H18.024V14.4253C18.7373 13.0067 20.5666 11.732 23.3146 11.732C28.5826 11.732 29.8333 14.556 29.8333 19.7373V29.3333H24.5V20.9173C24.5 17.9667 23.7866 16.3027 21.9706 16.3027C19.452 16.3027 18.4053 18.096 18.4053 20.916V29.3333H13.072V11.9587ZM3.92663 29.1067H9.25996V11.732H3.92663V29.1067ZM10.024 6.06667C10.0242 6.51371 9.9355 6.95632 9.76314 7.36879C9.59078 7.78126 9.33816 8.15536 9.01996 8.46934C8.37516 9.11017 7.50237 9.46888 6.59329 9.46667C5.68581 9.46606 4.81504 9.10827 4.16929 8.47067C3.85224 8.15562 3.60047 7.7811 3.42842 7.36858C3.25636 6.95606 3.1674 6.51364 3.16663 6.06667C3.16663 5.16401 3.52663 4.30001 4.17063 3.66267C4.81581 3.02422 5.68695 2.66627 6.59463 2.66667C7.50396 2.66667 8.37596 3.02534 9.01996 3.66267C9.66263 4.30001 10.024 5.16401 10.024 6.06667Z" fill="#EBE1E1"/>
</svg>
